<?xml version="1.0" standalone="no"?>
<!DOCTYPE svg PUBLIC "-//W3C//DTD SVG 20010904//EN"
 "http://www.w3.org/TR/2001/REC-SVG-20010904/DTD/svg10.dtd">
<svg version="1.0" xmlns="http://www.w3.org/2000/svg"
 width="525.000000pt" height="101.000000pt" viewBox="0 0 525.000000 101.000000"
 preserveAspectRatio="xMidYMid meet">

<g transform="translate(0.000000,101.000000) scale(0.100000,-0.100000)"
fill="#000000" stroke="none">
<path d="M309 920 c-67 -50 -83 -55 -154 -40 -43 9 -59 9 -71 -1 -30 -25 -84
-108 -84 -129 0 -56 179 -513 222 -564 37 -45 62 -45 105 -4 29 28 35 30 58
20 36 -17 53 -15 86 9 l29 20 29 -20 c33 -24 50 -26 87 -9 24 11 28 10 53 -21
25 -30 31 -33 63 -27 19 3 43 15 52 25 9 10 52 114 95 232 43 118 90 244 104
280 l25 65 -45 60 c-48 64 -70 75 -122 61 -50 -13 -89 -4 -150 37 -62 42 -69
43 -121 16 -52 -27 -90 -25 -150 5 -27 14 -51 25 -53 25 -2 0 -28 -18 -58 -40z"/>
<path d="M1670 740 c-62 -21 -99 -58 -136 -135 -28 -59 -30 -101 -8 -174 33
-111 148 -182 271 -166 69 8 93 31 93 86 0 35 -3 40 -17 36 -107 -35 -152 -33
-203 10 -83 69 -78 170 11 236 37 27 106 33 153 13 45 -19 56 -14 56 23 0 33
-34 68 -81 81 -48 14 -76 12 -139 -10z"/>
<path d="M2159 749 c-84 -13 -145 -54 -182 -124 -16 -30 -21 -58 -22 -115 0
-135 64 -214 197 -242 95 -20 178 18 178 81 0 39 -10 44 -54 26 -80 -33 -161
-9 -201 60 -43 73 -26 168 37 202 26 14 52 17 120 16 93 -3 104 2 94 42 -11
43 -84 66 -167 54z"/>
<path d="M2551 741 c-64 -22 -98 -47 -129 -91 -81 -120 -38 -295 90 -361 46
-24 143 -25 196 -3 78 32 131 109 139 203 10 110 -30 191 -117 233 -76 37
-115 41 -179 19z m117 -95 c52 -27 75 -62 79 -118 5 -60 -16 -110 -58 -141
-116 -84 -256 60 -187 192 36 70 106 98 166 67z"/>
<path d="M4180 751 c-88 -27 -157 -89 -179 -160 -34 -114 16 -247 112 -297
148 -78 327 20 344 188 11 111 -39 201 -140 249 -63 29 -92 34 -137 20z m111
-114 c39 -26 79 -90 79 -127 0 -37 -40 -101 -79 -127 -42 -28 -86 -29 -128 -3
-49 30 -68 65 -68 131 0 67 21 104 76 131 46 24 79 23 120 -5z"/>
<path d="M1210 705 c-12 -19 -57 -124 -101 -232 -84 -209 -85 -216 -24 -211
21 2 35 13 51 38 48 77 58 83 136 78 62 -3 73 -7 87 -28 28 -45 82 -90 107
-90 13 0 24 4 24 10 0 13 -90 263 -129 358 -37 91 -55 112 -97 112 -26 0 -36
-7 -54 -35z m90 -169 c11 -32 17 -62 14 -67 -3 -5 -26 -9 -51 -9 l-46 0 5 38
c8 54 36 118 48 106 5 -5 19 -36 30 -68z"/>
<path d="M2930 520 c0 -221 5 -260 35 -260 32 0 53 37 60 104 4 36 13 73 20
82 11 16 17 11 56 -45 24 -35 59 -81 78 -103 30 -34 39 -39 70 -36 47 4 45 19
-20 122 l-50 79 25 26 c36 39 66 93 66 121 0 33 -32 84 -67 107 -21 14 -53 19
-150 22 l-123 3 0 -222z m198 120 c25 -15 32 -27 32 -50 0 -33 -26 -50 -79
-50 -35 0 -51 17 -51 53 0 66 37 84 98 47z"/>
<path d="M3350 500 l0 -240 33 0 c55 0 211 27 248 43 95 39 147 199 100 302
-23 51 -89 111 -138 124 -21 6 -84 11 -140 11 l-103 0 0 -240z m214 137 c59
-33 81 -69 80 -128 -1 -75 -53 -134 -128 -146 -58 -9 -66 8 -66 138 0 59 4
119 10 133 12 33 50 34 104 3z"/>
<path d="M3814 530 c3 -115 10 -221 16 -234 10 -28 47 -43 64 -27 7 8 12 86
14 241 l3 230 -52 0 -52 0 7 -210z"/>
<path d="M4530 521 c0 -134 4 -230 10 -242 13 -24 32 -24 58 -1 18 15 22 34
29 161 l8 144 39 -59 c70 -107 166 -232 191 -248 36 -24 64 -20 75 10 6 14 10
122 10 240 l0 214 -39 0 c-22 0 -43 -6 -48 -12 -4 -7 -10 -75 -13 -150 l-5
-137 -60 86 c-33 47 -85 112 -115 145 -47 50 -61 60 -97 65 l-43 6 0 -222z"/>
</g>
</svg>
